<?xml version="1.0" encoding="UTF-8" standalone="no"?>
<!-- Created with Inkscape (http://www.inkscape.org/) -->

<svg
   xmlns:osb="http://www.openswatchbook.org/uri/2009/osb"
   xmlns:dc="http://purl.org/dc/elements/1.1/"
   xmlns:cc="http://creativecommons.org/ns#"
   xmlns:rdf="http://www.w3.org/1999/02/22-rdf-syntax-ns#"
   xmlns:svg="http://www.w3.org/2000/svg"
   xmlns="http://www.w3.org/2000/svg"
   xmlns:sodipodi="http://sodipodi.sourceforge.net/DTD/sodipodi-0.dtd"
   xmlns:inkscape="http://www.inkscape.org/namespaces/inkscape"
   width="14.971545mm"
   height="21.166666mm"
   viewBox="0 0 14.971545 21.166666"
   version="1.1"
   id="svg8"
   inkscape:version="0.92.1 r15371"
   sodipodi:docname="coq.svg">
  <defs
     id="defs2">
    <linearGradient
       id="linearGradient4489"
       osb:paint="solid">
      <stop
         style="stop-color:#000000;stop-opacity:1;"
         offset="0"
         id="stop4487" />
    </linearGradient>
  </defs>
  <sodipodi:namedview
     id="base"
     pagecolor="#ffffff"
     bordercolor="#666666"
     borderopacity="1.0"
     inkscape:pageopacity="0.0"
     inkscape:pageshadow="2"
     inkscape:zoom="4.528125"
     inkscape:cx="25.376872"
     inkscape:cy="31.667331"
     inkscape:document-units="mm"
     inkscape:current-layer="layer1"
     showgrid="false"
     fit-margin-top="0"
     fit-margin-left="0"
     fit-margin-right="0"
     fit-margin-bottom="0"
     showborder="false"
     inkscape:window-width="1920"
     inkscape:window-height="1001"
     inkscape:window-x="-9"
     inkscape:window-y="1341"
     inkscape:window-maximized="1" />
  <metadata
     id="metadata5">
    <rdf:RDF>
      <cc:Work
         rdf:about="">
        <dc:format>image/svg+xml</dc:format>
        <dc:type
           rdf:resource="http://purl.org/dc/dcmitype/StillImage" />
        <dc:title></dc:title>
      </cc:Work>
    </rdf:RDF>
  </metadata>
  <g
     inkscape:label="Calque 1"
     inkscape:groupmode="layer"
     id="layer1"
     transform="translate(-25.211377,-155.72986)">
    <g
       id="g4550">
      <rect
         y="155.98799"
         x="25.469507"
         height="20.650406"
         width="14.455285"
         id="rect4485"
         style="fill:#b7e769;fill-opacity:1;fill-rule:evenodd;stroke:#d6d6d6;stroke-width:0.51626021;stroke-linecap:square;stroke-linejoin:bevel;stroke-miterlimit:4;stroke-dasharray:none;stroke-opacity:1;paint-order:normal" />
      <g
         id="flowRoot4493"
         style="font-style:normal;font-variant:normal;font-weight:bold;font-stretch:normal;font-size:10.66666698px;line-height:1.25;font-family:Roboto;-inkscape-font-specification:'Roboto Bold';letter-spacing:0px;word-spacing:0px;fill:#000000;fill-opacity:1;stroke:none"
         transform="matrix(0.26458333,0,0,0.26458333,27.293862,157.49651)"
         aria-label="coq">
        <path
           id="path4538"
           style=""
           d="m 14.674479,35.333334 q 0.473959,0 0.786459,-0.276042 0.3125,-0.276042 0.333333,-0.682292 h 1.192708 q -0.02083,0.526042 -0.328125,0.984375 -0.307291,0.453125 -0.833333,0.71875 -0.526042,0.265625 -1.135417,0.265625 -1.182291,0 -1.875,-0.765625 -0.692708,-0.765625 -0.692708,-2.114583 v -0.130208 q 0,-1.286459 0.6875,-2.057292 0.6875,-0.776042 1.875,-0.776042 1.005208,0 1.635417,0.588542 0.635416,0.583333 0.666666,1.536458 h -1.192708 q -0.02083,-0.484375 -0.333333,-0.796875 -0.307292,-0.3125 -0.786459,-0.3125 -0.614583,0 -0.947916,0.447917 -0.333334,0.442708 -0.338542,1.348958 v 0.203125 q 0,0.916667 0.328125,1.369792 0.333333,0.447917 0.958333,0.447917 z" />
        <path
           id="path4540"
           style=""
           d="m 17.705729,33.369792 q 0,-0.828125 0.328125,-1.489584 0.328125,-0.666666 0.921875,-1.020833 0.59375,-0.359375 1.364584,-0.359375 1.140625,0 1.848958,0.734375 0.713542,0.734375 0.770833,1.947917 l 0.0052,0.296875 q 0,0.833333 -0.322917,1.489583 -0.317708,0.65625 -0.916667,1.015625 -0.59375,0.359375 -1.375,0.359375 -1.192708,0 -1.911458,-0.791666 -0.713542,-0.796875 -0.713542,-2.119792 z m 1.265625,0.109375 q 0,0.869792 0.359375,1.364583 0.359375,0.489584 1,0.489584 0.640625,0 0.994792,-0.5 0.359375,-0.5 0.359375,-1.463542 0,-0.854167 -0.369792,-1.354167 -0.364583,-0.5 -0.994791,-0.5 -0.619792,0 -0.984375,0.494792 -0.364584,0.489583 -0.364584,1.46875 z" />
        <path
           id="path4542"
           style=""
           d="m 23.789063,33.375 q 0,-1.322917 0.604167,-2.098958 0.604166,-0.776042 1.635416,-0.776042 0.942709,0 1.494792,0.661458 l 0.07292,-0.557291 h 1.125 v 7.802083 h -1.265625 v -2.645833 q -0.552084,0.583333 -1.4375,0.583333 -1.010417,0 -1.619792,-0.786458 -0.609375,-0.791667 -0.609375,-2.182292 z m 1.265625,0.109375 q 0,0.864584 0.338542,1.359375 0.34375,0.489584 0.947916,0.489584 0.75,0 1.114584,-0.640625 v -2.562501 q -0.364584,-0.614583 -1.104167,-0.614583 -0.604167,0 -0.953125,0.484375 -0.34375,0.484375 -0.34375,1.484375 z" />
      </g>
    </g>
  </g>
</svg>
