<?xml version="1.0" encoding="UTF-8" standalone="no"?>
<!-- Created with Inkscape (http://www.inkscape.org/) -->

<svg
   xmlns:osb="http://www.openswatchbook.org/uri/2009/osb"
   xmlns:dc="http://purl.org/dc/elements/1.1/"
   xmlns:cc="http://creativecommons.org/ns#"
   xmlns:rdf="http://www.w3.org/1999/02/22-rdf-syntax-ns#"
   xmlns:svg="http://www.w3.org/2000/svg"
   xmlns="http://www.w3.org/2000/svg"
   xmlns:sodipodi="http://sodipodi.sourceforge.net/DTD/sodipodi-0.dtd"
   xmlns:inkscape="http://www.inkscape.org/namespaces/inkscape"
   width="14.971545mm"
   height="21.166666mm"
   viewBox="0 0 14.971545 21.166666"
   version="1.1"
   id="svg8"
   inkscape:version="0.92.1 r15371"
   sodipodi:docname="nid.svg">
  <defs
     id="defs2">
    <linearGradient
       id="linearGradient4489"
       osb:paint="solid">
      <stop
         style="stop-color:#000000;stop-opacity:1;"
         offset="0"
         id="stop4487" />
    </linearGradient>
  </defs>
  <sodipodi:namedview
     id="base"
     pagecolor="#ffffff"
     bordercolor="#666666"
     borderopacity="1.0"
     inkscape:pageopacity="0.0"
     inkscape:pageshadow="2"
     inkscape:zoom="4.528125"
     inkscape:cx="25.376872"
     inkscape:cy="31.667331"
     inkscape:document-units="mm"
     inkscape:current-layer="layer1"
     showgrid="false"
     fit-margin-top="0"
     fit-margin-left="0"
     fit-margin-right="0"
     fit-margin-bottom="0"
     showborder="false"
     inkscape:window-width="1920"
     inkscape:window-height="1001"
     inkscape:window-x="-9"
     inkscape:window-y="1341"
     inkscape:window-maximized="1" />
  <metadata
     id="metadata5">
    <rdf:RDF>
      <cc:Work
         rdf:about="">
        <dc:format>image/svg+xml</dc:format>
        <dc:type
           rdf:resource="http://purl.org/dc/dcmitype/StillImage" />
        <dc:title></dc:title>
      </cc:Work>
    </rdf:RDF>
  </metadata>
  <g
     inkscape:label="Calque 1"
     inkscape:groupmode="layer"
     id="layer1"
     transform="translate(-25.211377,-155.72986)">
    <g
       id="g4536">
      <rect
         y="155.98799"
         x="25.469507"
         height="20.650406"
         width="14.455285"
         id="rect4485"
         style="fill:#9cb3ef;fill-opacity:1;fill-rule:evenodd;stroke:#d6d6d6;stroke-width:0.51626021;stroke-linecap:square;stroke-linejoin:bevel;stroke-miterlimit:4;stroke-dasharray:none;stroke-opacity:1;paint-order:normal" />
      <g
         id="flowRoot4493"
         style="font-style:normal;font-variant:normal;font-weight:bold;font-stretch:normal;font-size:10.66666698px;line-height:1.25;font-family:Roboto;-inkscape-font-specification:'Roboto Bold';letter-spacing:0px;word-spacing:0px;fill:#000000;fill-opacity:1;stroke:none"
         transform="matrix(0.26458333,0,0,0.26458333,27.661109,157.76936)"
         aria-label="nid">
        <path
           id="path4524"
           style=""
           d="m 13.533854,30.604167 0.03646,0.651041 q 0.625,-0.755208 1.640625,-0.755208 1.760416,0 1.791666,2.015625 v 3.723959 h -1.265625 v -3.651042 q 0,-0.536459 -0.234375,-0.791667 -0.229166,-0.260417 -0.755208,-0.260417 -0.765625,0 -1.140625,0.692709 v 4.010417 h -1.265625 v -5.635417 z" />
        <path
           id="path4526"
           style=""
           d="m 19.643229,36.239584 h -1.265625 v -5.635417 h 1.265625 z m -1.34375,-7.098959 q 0,-0.291667 0.182292,-0.484375 0.1875,-0.192708 0.53125,-0.192708 0.34375,0 0.53125,0.192708 0.1875,0.192708 0.1875,0.484375 0,0.286458 -0.1875,0.479167 -0.1875,0.1875 -0.53125,0.1875 -0.34375,0 -0.53125,-0.1875 -0.182292,-0.192709 -0.182292,-0.479167 z" />
        <path
           id="path4528"
           style=""
           d="m 20.789063,33.380209 q 0,-1.302084 0.604167,-2.088542 0.604166,-0.791667 1.619791,-0.791667 0.895834,0 1.447917,0.625 v -2.885417 h 1.265625 v 8.000001 h -1.145833 l -0.0625,-0.583334 q -0.567709,0.6875 -1.515625,0.6875 -0.989584,0 -1.604167,-0.796875 -0.609375,-0.796875 -0.609375,-2.166666 z m 1.265625,0.109375 q 0,0.859375 0.328125,1.34375 0.333333,0.479166 0.942708,0.479166 0.776042,0 1.135417,-0.692708 v -2.40625 q -0.348958,-0.677084 -1.125,-0.677084 -0.614583,0 -0.947917,0.489584 -0.333333,0.484375 -0.333333,1.463542 z" />
      </g>
    </g>
  </g>
</svg>
