<?xml version="1.0" encoding="UTF-8" standalone="no"?>
<!-- Created with Inkscape (http://www.inkscape.org/) -->

<svg
   xmlns:osb="http://www.openswatchbook.org/uri/2009/osb"
   xmlns:dc="http://purl.org/dc/elements/1.1/"
   xmlns:cc="http://creativecommons.org/ns#"
   xmlns:rdf="http://www.w3.org/1999/02/22-rdf-syntax-ns#"
   xmlns:svg="http://www.w3.org/2000/svg"
   xmlns="http://www.w3.org/2000/svg"
   xmlns:sodipodi="http://sodipodi.sourceforge.net/DTD/sodipodi-0.dtd"
   xmlns:inkscape="http://www.inkscape.org/namespaces/inkscape"
   width="14.971545mm"
   height="21.166666mm"
   viewBox="0 0 14.971545 21.166666"
   version="1.1"
   id="svg8"
   inkscape:version="0.92.1 r15371"
   sodipodi:docname="renard.svg">
  <defs
     id="defs2">
    <linearGradient
       id="linearGradient4489"
       osb:paint="solid">
      <stop
         style="stop-color:#000000;stop-opacity:1;"
         offset="0"
         id="stop4487" />
    </linearGradient>
  </defs>
  <sodipodi:namedview
     id="base"
     pagecolor="#ffffff"
     bordercolor="#666666"
     borderopacity="1.0"
     inkscape:pageopacity="0.0"
     inkscape:pageshadow="2"
     inkscape:zoom="4.528125"
     inkscape:cx="25.376872"
     inkscape:cy="31.667331"
     inkscape:document-units="mm"
     inkscape:current-layer="layer1"
     showgrid="false"
     fit-margin-top="0"
     fit-margin-left="0"
     fit-margin-right="0"
     fit-margin-bottom="0"
     showborder="false"
     inkscape:window-width="1920"
     inkscape:window-height="1001"
     inkscape:window-x="-9"
     inkscape:window-y="1341"
     inkscape:window-maximized="1" />
  <metadata
     id="metadata5">
    <rdf:RDF>
      <cc:Work
         rdf:about="">
        <dc:format>image/svg+xml</dc:format>
        <dc:type
           rdf:resource="http://purl.org/dc/dcmitype/StillImage" />
        <dc:title></dc:title>
      </cc:Work>
    </rdf:RDF>
  </metadata>
  <g
     inkscape:label="Calque 1"
     inkscape:groupmode="layer"
     id="layer1"
     transform="translate(-25.211377,-155.72986)">
    <g
       id="g4522">
      <rect
         y="155.98799"
         x="25.469507"
         height="20.650406"
         width="14.455285"
         id="rect4485"
         style="fill:#eee898;fill-opacity:1;fill-rule:evenodd;stroke:#d6d6d6;stroke-width:0.51626021;stroke-linecap:square;stroke-linejoin:bevel;stroke-miterlimit:4;stroke-dasharray:none;stroke-opacity:1;paint-order:normal" />
      <g
         id="flowRoot4493"
         style="font-style:normal;font-variant:normal;font-weight:bold;font-stretch:normal;font-size:10.66666698px;line-height:1.25;font-family:Roboto;-inkscape-font-specification:'Roboto Bold';letter-spacing:0px;word-spacing:0px;fill:#000000;fill-opacity:1;stroke:none"
         transform="matrix(0.26458333,0,0,0.26458333,25.534107,157.76936)"
         aria-label="renard">
        <path
           id="path4501"
           style=""
           d="m 15.309896,31.760417 q -0.25,-0.04167 -0.515625,-0.04167 -0.869792,0 -1.171875,0.666667 v 3.854167 h -1.265625 v -5.635417 h 1.208333 l 0.03125,0.630208 q 0.458334,-0.734375 1.270834,-0.734375 0.270833,0 0.447916,0.07292 z" />
        <path
           id="path4503"
           style=""
           d="m 18.486979,36.34375 q -1.203125,0 -1.953125,-0.755208 -0.744791,-0.760417 -0.744791,-2.020833 v -0.15625 q 0,-0.84375 0.322916,-1.505209 0.328125,-0.666667 0.916667,-1.036458 0.588542,-0.369792 1.3125,-0.369792 1.151042,0 1.776042,0.734375 0.630208,0.734375 0.630208,2.078125 v 0.510417 h -3.682292 q 0.05729,0.697917 0.463542,1.104167 0.411458,0.40625 1.03125,0.40625 0.869792,0 1.416667,-0.703125 l 0.682291,0.651041 q -0.338541,0.505209 -0.90625,0.786459 -0.5625,0.276041 -1.265625,0.276041 z m -0.151041,-4.828125 q -0.520834,0 -0.84375,0.364583 -0.317709,0.364584 -0.40625,1.015626 h 2.411458 v -0.09375 q -0.04167,-0.635417 -0.338542,-0.958334 -0.296875,-0.328125 -0.822916,-0.328125 z" />
        <path
           id="path4505"
           style=""
           d="m 22.908854,30.604167 0.03646,0.651041 q 0.625,-0.755208 1.640625,-0.755208 1.760416,0 1.791666,2.015625 v 3.723959 h -1.265625 v -3.651042 q 0,-0.536459 -0.234375,-0.791667 -0.229166,-0.260417 -0.755208,-0.260417 -0.765625,0 -1.140625,0.692709 v 4.010417 h -1.265625 v -5.635417 z" />
        <path
           id="path4507"
           style=""
           d="m 31.039063,36.239584 q -0.08333,-0.161459 -0.145834,-0.526042 -0.604166,0.630208 -1.479166,0.630208 -0.848959,0 -1.385417,-0.484375 -0.536458,-0.484375 -0.536458,-1.197916 0,-0.901042 0.666666,-1.380209 0.671875,-0.484375 1.916667,-0.484375 h 0.776042 v -0.369792 q 0,-0.4375 -0.244792,-0.697916 -0.244792,-0.265625 -0.744792,-0.265625 -0.432291,0 -0.708333,0.21875 -0.276042,0.213541 -0.276042,0.546875 h -1.265625 q 0,-0.463542 0.307292,-0.864584 0.307292,-0.40625 0.833333,-0.635416 0.53125,-0.229167 1.182292,-0.229167 0.989583,0 1.578125,0.5 0.588542,0.494792 0.604167,1.395833 v 2.541667 q 0,0.760417 0.213541,1.213542 v 0.08854 z m -1.390625,-0.911459 q 0.375,0 0.703125,-0.182291 0.333333,-0.182292 0.5,-0.489584 v -1.0625 h -0.682292 q -0.703125,0 -1.057292,0.244792 -0.354166,0.244792 -0.354166,0.692708 0,0.364584 0.239583,0.583334 0.244792,0.213541 0.651042,0.213541 z" />
        <path
           id="path4509"
           style=""
           d="m 36.39323,31.760417 q -0.25,-0.04167 -0.515625,-0.04167 -0.869792,0 -1.171875,0.666667 v 3.854167 h -1.265625 v -5.635417 h 1.208333 l 0.03125,0.630208 q 0.458334,-0.734375 1.270834,-0.734375 0.270833,0 0.447916,0.07292 z" />
        <path
           id="path4511"
           style=""
           d="m 36.851564,33.380209 q 0,-1.302084 0.604166,-2.088542 0.604167,-0.791667 1.619792,-0.791667 0.895834,0 1.447917,0.625 v -2.885417 h 1.265625 v 8.000001 h -1.145833 l -0.0625,-0.583334 q -0.567709,0.6875 -1.515625,0.6875 -0.989584,0 -1.604167,-0.796875 -0.609375,-0.796875 -0.609375,-2.166666 z m 1.265625,0.109375 q 0,0.859375 0.328125,1.34375 0.333333,0.479166 0.942708,0.479166 0.776042,0 1.135417,-0.692708 v -2.40625 q -0.348958,-0.677084 -1.125,-0.677084 -0.614583,0 -0.947917,0.489584 -0.333333,0.484375 -0.333333,1.463542 z" />
      </g>
    </g>
  </g>
</svg>
